<svg width="71" height="59" viewBox="0 0 71 59" fill="none" xmlns="http://www.w3.org/2000/svg">
<path d="M51.2923 10.4919L45.9583 14.5943H21.5183L18.7209 10.4919L24.2175 2.44013C24.8218 1.55499 25.8243 1.02551 26.8959 1.02551H43.1171C44.1888 1.02551 45.1914 1.55499 45.7955 2.44013L51.2923 10.4919Z" fill="#9B9B9B"/>
<path d="M45.7952 2.44001C45.191 1.55486 44.1885 1.02539 43.1168 1.02539H39.3857C40.4574 1.02539 41.46 1.55486 42.0642 2.44001L47.5607 10.4918H51.2918L45.7952 2.44001Z" fill="#818181"/>
<path d="M68.9874 17.4563V50.7358C68.9874 52.3179 67.7061 53.5992 66.124 53.5992H3.88882C2.30669 53.5992 1.02539 52.3179 1.02539 50.7358V17.4563C1.02539 15.8755 2.30669 14.5942 3.88882 14.5942H66.124C67.7061 14.5942 68.9874 15.8755 68.9874 17.4563Z" fill="#595959"/>
<path d="M66.1239 14.5943H62.8557C64.4378 14.5943 65.7191 15.8756 65.7191 17.4564V50.7359C65.7191 52.318 64.4378 53.5993 62.8557 53.5993H66.124C67.7062 53.5993 68.9875 52.318 68.9875 50.7359V17.4564C68.9873 15.8756 67.706 14.5943 66.1239 14.5943Z" fill="#454545"/>
<path d="M61.4105 57.2868H8.60208C7.39012 57.2868 6.40747 56.3043 6.40747 55.0922V53.5991H63.6051V55.0922C63.6051 56.3043 62.6226 57.2868 61.4105 57.2868Z" fill="#454545"/>
<path d="M68.9874 13.3539V19.6032H1.02539V13.3539C1.02539 11.7732 2.30669 10.4919 3.88882 10.4919H66.124C67.7061 10.4919 68.9874 11.7732 68.9874 13.3539Z" fill="#F4FBFF"/>
<path d="M66.1239 10.4919H62.8557C64.4378 10.4919 65.7191 11.7732 65.7191 13.3539V19.6032H68.9873V13.3539C68.9873 11.7732 67.706 10.4919 66.1239 10.4919Z" fill="#DFEAEF"/>
<path d="M15.0739 10.4919H6.60205V8.31874C6.60205 7.45287 7.30396 6.75082 8.16996 6.75082H13.5061C14.372 6.75082 15.0741 7.45273 15.0741 8.31874L15.0739 10.4919Z" fill="#9B9B9B"/>
<path d="M35.0063 49.7656C44.689 49.7656 52.5384 41.9162 52.5384 32.2334C52.5384 22.5507 44.689 14.7013 35.0063 14.7013C25.3235 14.7013 17.4741 22.5507 17.4741 32.2334C17.4741 41.9162 25.3235 49.7656 35.0063 49.7656Z" fill="#9B9B9B"/>
<path d="M35.0064 14.7013C34.51 14.7013 34.0187 14.723 33.5327 14.7635C42.5257 15.512 49.5912 23.0472 49.5912 32.2335C49.5912 41.4199 42.5257 48.9549 33.5327 49.7036C34.0187 49.7441 34.51 49.7658 35.0064 49.7658C44.6891 49.7658 52.5386 41.9164 52.5386 32.2337C52.5387 22.5508 44.6893 14.7013 35.0064 14.7013Z" fill="#818181"/>
<path d="M35.0064 45.1913C42.1627 45.1913 47.9641 39.3899 47.9641 32.2335C47.9641 25.0771 42.1627 19.2757 35.0064 19.2757C27.85 19.2757 22.0486 25.0771 22.0486 32.2335C22.0486 39.3899 27.85 45.1913 35.0064 45.1913Z" fill="#D3EFFB"/>
<path d="M35.0064 19.2757C34.4426 19.2757 33.8873 19.312 33.3425 19.3817C39.713 20.1983 44.6364 25.6409 44.6364 32.2335C44.6364 38.8261 39.713 44.2685 33.3425 45.0853C33.8873 45.1552 34.4426 45.1913 35.0064 45.1913C42.1628 45.1913 47.9642 39.3899 47.9642 32.2335C47.9642 25.0771 42.1628 19.2757 35.0064 19.2757Z" fill="#B1E4F9"/>
<path d="M66.1243 9.46627H51.834L46.6427 1.86191C45.8467 0.69603 44.5288 0 43.1173 0H35.5832C35.0167 0 34.5577 0.459051 34.5577 1.02558C34.5577 1.59212 35.0167 2.05117 35.5832 2.05117H43.1173C43.8505 2.05117 44.5352 2.41286 44.9487 3.01836L49.3504 9.46627H20.6629L25.0646 3.01836C25.478 2.41272 26.1625 2.05117 26.896 2.05117H31.4825C32.0491 2.05117 32.5081 1.59212 32.5081 1.02558C32.5081 0.459051 32.0491 0 31.4825 0H26.896C25.4843 0 24.1663 0.69603 23.3706 1.86191L18.1794 9.46627H16.0995V8.31871C16.0995 6.88864 14.9361 5.72522 13.506 5.72522H8.16994C6.73986 5.72522 5.57644 6.88864 5.57644 8.31871V9.46627H3.88901C1.74472 9.46627 0 11.2103 0 13.3539V50.7358C0 52.8802 1.74472 54.6246 3.88901 54.6246H5.38213V55.092C5.38213 56.8675 6.8267 58.3122 8.60232 58.3122H12.4767C13.0432 58.3122 13.5023 57.8532 13.5023 57.2866C13.5023 56.7201 13.0432 56.2611 12.4767 56.2611H8.60232C7.95771 56.2611 7.43329 55.7366 7.43329 55.092V54.6246H62.5798V55.092C62.5798 55.7366 62.0553 56.2611 61.4107 56.2611H16.5774C16.0109 56.2611 15.5518 56.7201 15.5518 57.2866C15.5518 57.8532 16.0109 58.3122 16.5774 58.3122H61.4109C63.1864 58.3122 64.6311 56.8677 64.6311 55.092V54.6246H66.1243C68.2687 54.6246 70.0132 52.8801 70.0132 50.7358V13.3539C70.0132 11.2103 68.2686 9.46627 66.1243 9.46627ZM7.62761 8.31871C7.62761 8.01965 7.87088 7.77639 8.16994 7.77639H13.506C13.805 7.77639 14.0483 8.01965 14.0483 8.31871V9.46627H7.62761V8.31871ZM3.88901 11.5174H66.1242C67.1374 11.5174 67.9619 12.3413 67.9619 13.3541V18.5776H47.5621C44.2362 15.5235 39.8078 13.6755 35.0066 13.6755C30.1703 13.6755 25.761 15.5358 22.4545 18.5776H2.05117V13.3539C2.05117 12.3413 2.8756 11.5174 3.88901 11.5174ZM66.1243 52.5736C62.1917 52.5736 6.2361 52.5736 3.88915 52.5736C2.87574 52.5736 2.0513 51.7492 2.0513 50.7359V20.6287H20.5364C17.9808 23.8091 16.449 27.8454 16.449 32.2334C16.449 42.4661 24.774 50.7911 35.0067 50.7911C39.6195 50.7911 44.0417 49.0873 47.4584 45.9936C50.8504 42.9222 52.9819 38.7351 53.4605 34.2035C53.52 33.6402 53.1116 33.1354 52.5482 33.0759C51.9851 33.0168 51.4801 33.425 51.4206 33.9883C50.9953 38.0173 49.0991 41.7408 46.0817 44.4731C43.0429 47.2247 39.1099 48.74 35.0069 48.74C25.905 48.74 18.5003 41.3353 18.5003 32.2334C18.5003 23.1316 25.9047 15.7267 35.0066 15.7267C43.2949 15.7267 50.334 21.9166 51.38 30.1249C51.4515 30.6868 51.964 31.0833 52.527 31.0126C53.0887 30.941 53.4864 30.4276 53.4146 29.8655C52.9702 26.378 51.5633 23.215 49.4828 20.6286H67.962V50.7358C67.962 51.7492 67.1376 52.5736 66.1243 52.5736Z" fill="black"/>
<path d="M58.8154 16.0731H62.0029C62.5694 16.0731 63.0285 15.6141 63.0285 15.0475C63.0285 14.481 62.5694 14.0219 62.0029 14.0219H58.8154C58.2488 14.0219 57.7898 14.481 57.7898 15.0475C57.7898 15.6141 58.249 16.0731 58.8154 16.0731Z" fill="black"/>
<path d="M35.0065 18.2501C27.2961 18.2501 21.0232 24.5229 21.0232 32.2334C21.0232 39.9439 27.2961 46.2168 35.0065 46.2168C42.717 46.2168 48.9899 39.9439 48.9899 32.2334C48.9899 24.5229 42.717 18.2501 35.0065 18.2501ZM35.0065 44.1656C28.4272 44.1656 23.0744 38.8127 23.0744 32.2334C23.0744 25.6541 28.4272 20.3012 35.0065 20.3012C41.5859 20.3012 46.9387 25.6541 46.9387 32.2334C46.9387 38.8127 41.5859 44.1656 35.0065 44.1656Z" fill="black"/>
<path d="M35.0066 23.4258C30.1499 23.4258 26.199 27.3769 26.199 32.2334C26.199 32.7999 26.658 33.2589 27.2246 33.2589C27.7911 33.2589 28.2501 32.7999 28.2501 32.2334C28.2501 28.5079 31.2811 25.4769 35.0066 25.4769C35.5731 25.4769 36.0321 25.0179 36.0321 24.4514C36.0321 23.8848 35.5731 23.4258 35.0066 23.4258Z" fill="black"/>
<path d="M60.6469 46.7623C60.0804 46.7623 59.6213 47.2213 59.6213 47.7879V48.2118C59.6213 48.7783 60.0804 49.2373 60.6469 49.2373C61.2135 49.2373 61.6725 48.7783 61.6725 48.2118V47.7879C61.6725 47.2213 61.2133 46.7623 60.6469 46.7623Z" fill="black"/>
<path d="M9.3664 46.7623C8.79987 46.7623 8.34082 47.2213 8.34082 47.7879V48.2118C8.34082 48.7783 8.79987 49.2373 9.3664 49.2373C9.93294 49.2373 10.392 48.7783 10.392 48.2118V47.7879C10.392 47.2213 9.93294 46.7623 9.3664 46.7623Z" fill="black"/>
</svg>
