<svg width="24" height="24" viewBox="0 0 24 24" fill="none" xmlns="http://www.w3.org/2000/svg">
<g clip-path="url(#clip0_9982_33570)">
<path d="M9.20054 4.14015V1.20015C9.20117 0.988168 9.28566 0.785053 9.43555 0.63516C9.58544 0.485268 9.78856 0.40078 10.0005 0.400146H19.6005C19.8125 0.40078 20.0156 0.485268 20.1655 0.63516C20.3154 0.785053 20.3999 0.988168 20.4005 1.20015V20.0001H8.80054L9.20054 4.14015Z" fill="#FDFDFD"/>
<path d="M14.6646 19.2003H23.2006C23.3066 19.2003 23.4084 19.2425 23.4834 19.3175C23.5584 19.3925 23.6005 19.4942 23.6005 19.6003V20.0003C23.6005 20.4247 23.432 20.8316 23.1319 21.1317C22.8319 21.4317 22.4249 21.6003 22.0005 21.6003H15.5206L14.6646 19.2003Z" fill="#EBEBEB"/>
<path d="M6.40025 16.8002L3.47625 17.7066C2.92262 17.8555 2.40932 18.1264 1.97397 18.4995C1.53863 18.8726 1.19226 19.3383 0.960254 19.8626C0.571695 20.7923 0.38098 21.7927 0.400254 22.8002C0.400254 23.0123 0.484539 23.2158 0.634568 23.3659C0.784597 23.5159 0.988081 23.6002 1.20025 23.6002H14.8003C15.0124 23.6002 15.2159 23.5159 15.3659 23.3659C15.516 23.2158 15.6003 23.0123 15.6003 22.8002C15.6195 21.7927 15.4288 20.7923 15.0403 19.8626C14.8081 19.3381 14.4615 18.8723 14.0258 18.4992C13.5902 18.1261 13.0766 17.8553 12.5227 17.7066L9.60025 16.8002H6.40025Z" fill="#35B4F6"/>
<path d="M23.5767 6.82807C23.4119 7.22407 23.1267 7.88807 22.8167 8.56807C22.7853 8.63503 22.7408 8.69501 22.6858 8.74448C22.6309 8.79395 22.5665 8.83189 22.4967 8.85607L20.6683 9.50407L21.2867 10.3881C21.3582 10.4895 21.3949 10.6114 21.3913 10.7354C21.3877 10.8595 21.344 10.979 21.2667 11.0761C20.9982 11.4068 20.7126 11.7232 20.4111 12.0241C18.7199 13.7081 16.5867 14.3121 15.6427 13.3761C14.6987 12.4401 15.3091 10.3161 17.0027 8.62807C19.2403 6.40007 22.2347 6.34807 23.3155 6.41607C23.3633 6.41832 23.4098 6.43204 23.4512 6.45608C23.4926 6.48012 23.5275 6.51377 23.5531 6.55418C23.5788 6.59459 23.5943 6.64058 23.5984 6.68825C23.6025 6.73593 23.595 6.78389 23.5767 6.82807Z" fill="#35B4F6"/>
<path d="M13.2005 11.8042V9.20024C13.2005 7.82112 12.6527 6.49848 11.6775 5.52329C10.7023 4.5481 9.37966 4.00024 8.00054 4.00024C6.62141 4.00024 5.29877 4.5481 4.32358 5.52329C3.34839 6.49848 2.80054 7.82112 2.80054 9.20024V11.8042H13.2005Z" fill="#333333"/>
<path d="M9.60015 16.2441V16.8001C9.60015 17.2245 9.43158 17.6315 9.13152 17.9315C8.83146 18.2316 8.42449 18.4001 8.00015 18.4001C7.5758 18.4001 7.16883 18.2316 6.86878 17.9315C6.56872 17.6315 6.40015 17.2245 6.40015 16.8001V16.2441H9.60015Z" fill="#FFBF54"/>
<path d="M13.2005 11.8029C13.2005 12.0681 13.0952 12.3225 12.9076 12.51C12.7201 12.6975 12.4658 12.8029 12.2005 12.8029C12.1112 13.382 11.9416 13.9459 11.6965 14.4781C11.2525 15.2529 9.15654 16.8001 8.00054 16.8001C6.84454 16.8001 4.74854 15.2529 4.30454 14.4773C4.05946 13.9451 3.88982 13.3812 3.80054 12.8021C3.53532 12.8021 3.28097 12.6967 3.09343 12.5092C2.90589 12.3217 2.80054 12.0673 2.80054 11.8021C2.80054 11.5369 2.90589 11.2825 3.09343 11.095C3.28097 10.9075 3.53532 10.8021 3.80054 10.8021L3.86454 10.2905C3.90155 9.99715 4.03512 9.72444 4.2442 9.51536C4.45327 9.30628 4.72598 9.17272 5.01934 9.13571C5.98327 9.04987 6.9045 8.6983 7.68054 8.12011C7.76909 8.04252 7.88281 7.99976 8.00054 7.99976C8.11827 7.99976 8.23199 8.04252 8.32054 8.12011C9.09656 8.69879 10.0179 9.05079 10.9821 9.13691C11.2755 9.17392 11.5482 9.30748 11.7573 9.51656C11.9664 9.72564 12.0999 9.99835 12.1369 10.2917L12.2009 10.8033C12.466 10.8034 12.7202 10.9088 12.9076 11.0962C13.0951 11.2836 13.2004 11.5378 13.2005 11.8029Z" fill="#FFB333"/>
<path d="M1.19949 24H14.7995C15.1178 24 15.423 23.8736 15.648 23.6485C15.8731 23.4235 15.9995 23.1183 15.9995 22.8C15.9995 22.5264 15.9863 22.2604 15.9643 22H21.9995C22.5297 21.9994 23.0381 21.7884 23.413 21.4135C23.7879 21.0386 23.9989 20.5302 23.9995 20V19.6C23.9995 19.3878 23.9152 19.1843 23.7652 19.0343C23.6152 18.8843 23.4117 18.8 23.1995 18.8H20.7995V12.1948C21.0691 11.9196 21.3259 11.6348 21.5807 11.3228C21.7111 11.1583 21.7848 10.9559 21.7907 10.7461C21.7967 10.5362 21.7345 10.33 21.6135 10.1584L21.2963 9.7056L22.6243 9.2344C22.7458 9.19232 22.8576 9.12633 22.9532 9.04032C23.0487 8.9543 23.1261 8.85001 23.1807 8.7336C23.4931 8.0456 23.7807 7.3772 23.9435 6.9852C23.9871 6.88281 24.0054 6.77146 23.997 6.6605C23.9886 6.54955 23.9536 6.44224 23.8951 6.3476C23.8358 6.25212 23.7545 6.17225 23.6579 6.11469C23.5614 6.05713 23.4525 6.02356 23.3403 6.0168C23.1923 6.0076 23.0103 6 22.7995 6C22.6934 6 22.5917 6.04214 22.5167 6.11716C22.4416 6.19217 22.3995 6.29391 22.3995 6.4C22.3995 6.50609 22.4416 6.60783 22.5167 6.68284C22.5917 6.75786 22.6934 6.8 22.7995 6.8C22.9287 6.8 23.0463 6.8032 23.1515 6.808C22.9847 7.2052 22.7291 7.7948 22.4563 8.3964C22.447 8.41574 22.4338 8.433 22.4177 8.44716C22.4015 8.46132 22.3827 8.47208 22.3623 8.4788L20.5347 9.1268C20.4766 9.1474 20.4241 9.18114 20.3812 9.22539C20.3383 9.26965 20.3062 9.32322 20.2874 9.38192C20.2686 9.44062 20.2637 9.50287 20.2729 9.5638C20.2821 9.62474 20.3053 9.68271 20.3407 9.7332L20.9595 10.6176C20.9813 10.6477 20.9928 10.684 20.9924 10.7212C20.992 10.7584 20.9796 10.7944 20.9571 10.824C20.6974 11.1439 20.4209 11.4498 20.1287 11.7404C18.6239 13.24 16.6971 13.8604 15.9255 13.0928C15.8118 12.9689 15.7244 12.8234 15.6684 12.6649C15.6124 12.5064 15.5889 12.3382 15.5995 12.1704C15.5995 11.1956 16.2459 9.9472 17.2863 8.9112C18.3725 7.84944 19.7651 7.1562 21.2671 6.9296C21.3203 6.92237 21.3715 6.9045 21.4177 6.87705C21.4638 6.8496 21.504 6.81314 21.5358 6.76984C21.5675 6.72654 21.5902 6.67728 21.6026 6.62502C21.6149 6.57275 21.6166 6.51853 21.6075 6.4656C21.5984 6.41267 21.5787 6.36212 21.5497 6.31694C21.5207 6.27177 21.4828 6.23291 21.4384 6.20267C21.3941 6.17243 21.344 6.15144 21.2914 6.14095C21.2387 6.13046 21.1845 6.13068 21.1319 6.1416C21.0187 6.1608 20.9103 6.1872 20.7995 6.21V1.2C20.7995 0.88174 20.6731 0.576515 20.448 0.351472C20.223 0.126428 19.9178 0 19.5995 0L9.99949 0C9.68123 0 9.37601 0.126428 9.15097 0.351472C8.92592 0.576515 8.79949 0.88174 8.79949 1.2V3.664C8.00419 3.54243 7.19198 3.59491 6.41893 3.81781C5.64589 4.04071 4.93043 4.42872 4.32194 4.95506C3.71346 5.4814 3.22645 6.13352 2.89454 6.86641C2.56263 7.59929 2.39373 8.39548 2.39949 9.2V11.804C2.39994 12.1157 2.50441 12.4184 2.69635 12.664C2.88829 12.9097 3.15672 13.0842 3.45909 13.16C3.55285 13.6862 3.72022 14.1965 3.95629 14.676C4.50175 15.4135 5.19833 16.0261 5.99949 16.4728V16.5052L3.37069 17.32C2.75841 17.4831 2.19065 17.7818 1.70949 18.194C1.22833 18.6063 0.846092 19.1216 0.591094 19.7016C0.182137 20.6825 -0.0192915 21.7374 -0.00050613 22.8C-0.00050613 23.1183 0.125922 23.4235 0.350966 23.6485C0.576009 23.8736 0.881234 24 1.19949 24ZM23.1995 20C23.1995 20.3183 23.0731 20.6235 22.848 20.8485C22.623 21.0736 22.3178 21.2 21.9995 21.2H15.8575C15.7654 20.6851 15.6146 20.1825 15.4079 19.702C15.3923 19.6668 15.3723 19.6344 15.3559 19.6H23.1995V20ZM19.9995 12.9164V18.8H14.8639C14.3018 18.0812 13.5221 17.5637 12.6415 17.3248L9.99949 16.5052V16.4728C10.8003 16.0265 11.4967 15.4143 12.0419 14.6772C12.2197 14.3365 12.3533 13.9745 12.4395 13.6H14.9195L13.4267 15.2H12.7995C12.6934 15.2 12.5917 15.2421 12.5167 15.3172C12.4416 15.3922 12.3995 15.4939 12.3995 15.6C12.3995 15.7061 12.4416 15.8078 12.5167 15.8828C12.5917 15.9579 12.6934 16 12.7995 16H18.3995C18.5056 16 18.6073 15.9579 18.6823 15.8828C18.7574 15.8078 18.7995 15.7061 18.7995 15.6C18.7995 15.4939 18.7574 15.3922 18.6823 15.3172C18.6073 15.2421 18.5056 15.2 18.3995 15.2H14.5195L15.7091 13.9252C16.0583 14.1241 16.4549 14.2247 16.8567 14.2164C18.0176 14.1357 19.1208 13.6794 19.9995 12.9164ZM13.5995 11.804V11.2H14.9427C14.8514 11.5155 14.8032 11.842 14.7995 12.1704C14.801 12.3832 14.8303 12.5948 14.8867 12.8H13.1763C13.3097 12.6706 13.4159 12.5158 13.4886 12.3448C13.5613 12.1737 13.599 11.9899 13.5995 11.804ZM15.2459 10.4H13.5995V9.2C13.5995 9.0648 13.5887 8.9328 13.5791 8.8H16.2991C15.8766 9.28275 15.5223 9.82109 15.2459 10.4ZM9.59949 1.2C9.59949 1.09391 9.64164 0.992172 9.71665 0.917157C9.79167 0.842143 9.89341 0.8 9.99949 0.8H19.5995C19.7056 0.8 19.8073 0.842143 19.8823 0.917157C19.9574 0.992172 19.9995 1.09391 19.9995 1.2V6.4116C18.9296 6.728 17.9397 7.26958 17.0963 8H13.4667C13.3426 7.43752 13.1318 6.89775 12.8419 6.4H18.3995C18.5056 6.4 18.6073 6.35786 18.6823 6.28284C18.7574 6.20783 18.7995 6.10609 18.7995 6C18.7995 5.89391 18.7574 5.79217 18.6823 5.71716C18.6073 5.64214 18.5056 5.6 18.3995 5.6H12.2827C11.5792 4.76315 10.6466 4.15004 9.59949 3.836V1.2ZM7.99949 4.4C9.27211 4.40138 10.4922 4.90753 11.3921 5.80741C12.292 6.70728 12.7981 7.92738 12.7995 9.2V10.5404C12.7224 10.5029 12.6421 10.4725 12.5595 10.4496L12.5335 10.2416C12.4852 9.86042 12.3116 9.5061 12.04 9.23431C11.7684 8.96251 11.4142 8.78863 11.0331 8.74C10.1461 8.66315 9.2975 8.34346 8.58029 7.816C8.41921 7.67662 8.21331 7.5999 8.00029 7.5999C7.78728 7.5999 7.58138 7.67662 7.42029 7.816C6.70291 8.34347 5.85418 8.66329 4.96709 8.7404C4.5862 8.78881 4.23217 8.96235 3.9606 9.23377C3.68903 9.5052 3.5153 9.85913 3.46669 10.24L3.44069 10.448C3.35808 10.4709 3.27775 10.5013 3.20069 10.5388V9.2C3.20207 7.92759 3.70806 6.70767 4.60768 5.80783C5.50729 4.90799 6.72709 4.40169 7.99949 4.4ZM4.64989 14.2772C4.42712 13.7883 4.27377 13.2706 4.19429 12.7392C4.17935 12.6452 4.1314 12.5596 4.05904 12.4978C3.98668 12.436 3.89465 12.4021 3.79949 12.402C3.64036 12.402 3.48775 12.3388 3.37523 12.2263C3.26271 12.1137 3.19949 11.9611 3.19949 11.802C3.19949 11.6429 3.26271 11.4903 3.37523 11.3777C3.48775 11.2652 3.64036 11.202 3.79949 11.202C3.89697 11.202 3.99108 11.1664 4.06415 11.1018C4.13722 11.0373 4.18421 10.9483 4.19629 10.8516L4.26029 10.34C4.28666 10.1348 4.38044 9.9441 4.5269 9.79793C4.67336 9.65176 4.86421 9.55836 5.06949 9.5324C6.11093 9.43642 7.10503 9.05219 7.94029 8.4228C7.95625 8.40697 7.97782 8.39809 8.00029 8.39809C8.02277 8.39809 8.04434 8.40697 8.06029 8.4228C8.89538 9.05218 9.88939 9.43629 10.9307 9.532C11.1361 9.55803 11.327 9.65149 11.4735 9.79772C11.62 9.94396 11.7139 10.1347 11.7403 10.34L11.8043 10.8516C11.8164 10.9483 11.8634 11.0373 11.9364 11.1018C12.0095 11.1664 12.1036 11.202 12.2011 11.202C12.3602 11.202 12.5128 11.2652 12.6254 11.3777C12.7379 11.4903 12.8011 11.6429 12.8011 11.802C12.8011 11.9611 12.7379 12.1137 12.6254 12.2263C12.5128 12.3388 12.3602 12.402 12.2011 12.402C12.1059 12.4021 12.0139 12.436 11.9416 12.4978C11.8692 12.5596 11.8212 12.6452 11.8063 12.7392C11.7264 13.2717 11.5722 13.7903 11.3483 14.28C10.9467 14.9796 8.95949 16.4 7.99949 16.4C7.03949 16.4 5.05229 14.9796 4.64989 14.2772ZM9.18989 16.8932C9.1685 17.1944 9.03377 17.4762 8.81285 17.682C8.59192 17.8878 8.30122 18.0022 7.99929 18.0022C7.69737 18.0022 7.40667 17.8878 7.18574 17.682C6.96482 17.4762 6.83009 17.1944 6.80869 16.8932C7.18158 17.0728 7.58624 17.1771 7.99949 17.2C8.41262 17.1771 8.81717 17.0729 9.18989 16.8932ZM1.32429 20.0232C1.53289 19.5509 1.84528 19.1317 2.23821 18.7968C2.63115 18.4619 3.09453 18.2199 3.59389 18.0888L6.07629 17.32C6.18846 17.7445 6.43792 18.12 6.7858 18.3879C7.13368 18.6558 7.56042 18.801 7.99949 18.801C8.43857 18.801 8.86531 18.6558 9.21319 18.3879C9.56106 18.12 9.81053 17.7445 9.92269 17.32L12.4183 18.0936C12.9151 18.2256 13.3758 18.4676 13.7664 18.8018C14.1569 19.1359 14.4674 19.5537 14.6747 20.024C15.0392 20.9032 15.2179 21.8484 15.1995 22.8C15.1995 22.9061 15.1574 23.0078 15.0823 23.0828C15.0073 23.1579 14.9056 23.2 14.7995 23.2H1.19949C1.09341 23.2 0.991666 23.1579 0.916651 23.0828C0.841637 23.0078 0.799494 22.9061 0.799494 22.8C0.780922 21.8481 0.959605 20.9027 1.32429 20.0232Z" fill="#333333"/>
<path d="M18.7996 3.60007C18.7996 3.49399 18.7574 3.39225 18.6824 3.31723C18.6074 3.24222 18.5056 3.20007 18.3996 3.20007H11.1996C11.0935 3.20007 10.9917 3.24222 10.9167 3.31723C10.8417 3.39225 10.7996 3.49399 10.7996 3.60007C10.7996 3.70616 10.8417 3.8079 10.9167 3.88292C10.9917 3.95793 11.0935 4.00007 11.1996 4.00007H18.3996C18.5056 4.00007 18.6074 3.95793 18.6824 3.88292C18.7574 3.8079 18.7996 3.70616 18.7996 3.60007Z" fill="#333333"/>
</g>
<defs>
<clipPath id="clip0_9982_33570">
<rect width="24" height="24" fill="white"/>
</clipPath>
</defs>
</svg>
